# xmcd
#
# Track frame offsets:
#	187
#	24435
#	48562
#	68657
#	89322
#	107137
#	121010
#	141955
#	161627
#	179475
#
# Disc length: 2602 seconds
#
# Revision: 1
# Processed by: cddbd v1.5PL3 Copyright (c) Steve Scherf et al.
# Submitted via: CDex 1.50Beta5
#
DISCID=830a280a
DTITLE=高岡早紀 - SABRINA
DYEAR=1989
DGENRE=Pop
TTITLE0=野蛮な憂鬱
TTITLE1=×××のデザート
TTITLE2=ナイフの鳥、綺麗な石
TTITLE3=太陽はひとりぼっち
TTITLE4=SLEEP WALKER
TTITLE5=真夜中のバレリーナ
TTITLE6=悲しみよこんにちは
TTITLE7=ROSE
TTITLE8=眠れぬ森の美女
TTITLE9=ガラスの夜想曲
EXTD=
EXTT0=
EXTT1=
EXTT2=
EXTT3=
EXTT4=
EXTT5=
EXTT6=
EXTT7=
EXTT8=
EXTT9=
PLAYORDER=
